<svg xmlns="http://www.w3.org/2000/svg" viewBox="0 0 800 500" width="800" height="500">
<defs>
<linearGradient id="g" x1="0" y1="0" x2="1" y2="1">
<stop offset="0" stop-color="hsl(85 55% 32%)"/>
<stop offset="1" stop-color="hsl(125 60% 20%)"/>
</linearGradient>
<radialGradient id="r" cx="0.3" cy="0.25" r="0.75">
<stop offset="0" stop-color="hsl(85 70% 62%)" stop-opacity="0.85"/>
<stop offset="1" stop-color="hsl(85 70% 62%)" stop-opacity="0"/>
</radialGradient>
</defs>
<rect width="800" height="500" fill="url(#g)"/>
<rect width="800" height="500" fill="url(#r)"/>
<rect x="150" y="270.3502077748999" width="22" height="59.6497922251001" rx="4" fill="hsl(125 85% 78%)" opacity="0.5217273673275485"/><rect x="186" y="246.62874780595303" width="22" height="83.37125219404697" rx="4" fill="hsl(125 85% 78%)" opacity="0.8195031865267083"/><rect x="222" y="134.3568048859015" width="22" height="195.6431951140985" rx="4" fill="hsl(125 85% 78%)" opacity="0.36105318323243407"/><rect x="258" y="131.21549756266177" width="22" height="198.78450243733823" rx="4" fill="hsl(125 85% 78%)" opacity="0.8204537506913766"/><rect x="294" y="233.98665096145123" width="22" height="96.01334903854877" rx="4" fill="hsl(125 85% 78%)" opacity="0.36226659270469097"/><rect x="330" y="226.06281036511064" width="22" height="103.93718963488936" rx="4" fill="hsl(125 85% 78%)" opacity="0.39060507647227494"/><rect x="366" y="182.4793800385669" width="22" height="147.5206199614331" rx="4" fill="hsl(125 85% 78%)" opacity="0.6520900507690385"/><rect x="402" y="267.2796783130616" width="22" height="62.720321686938405" rx="4" fill="hsl(125 85% 78%)" opacity="0.45081280523445455"/><rect x="438" y="269.9865905707702" width="22" height="60.013409429229796" rx="4" fill="hsl(125 85% 78%)" opacity="0.7846923778066411"/><rect x="474" y="119.68301739543676" width="22" height="210.31698260456324" rx="4" fill="hsl(125 85% 78%)" opacity="0.3771651985822245"/><rect x="510" y="187.32245577964932" width="22" height="142.67754422035068" rx="4" fill="hsl(125 85% 78%)" opacity="0.3872270896332338"/><rect x="546" y="275.0258169043809" width="22" height="54.97418309561908" rx="4" fill="hsl(125 85% 78%)" opacity="0.8157109215622768"/><rect x="582" y="255.89597463142127" width="22" height="74.10402536857873" rx="4" fill="hsl(125 85% 78%)" opacity="0.8175777588272467"/><rect x="618" y="104.92255447432399" width="22" height="225.077445525676" rx="4" fill="hsl(125 85% 78%)" opacity="0.560175107116811"/>
</svg>